<?xml version="1.0" encoding="UTF-8" standalone="no"?>
<!DOCTYPE svg PUBLIC "-//W3C//DTD SVG 1.1//EN"
 "http://www.w3.org/Graphics/SVG/1.1/DTD/svg11.dtd">
<!-- Generated by graphviz version 12.2.0 (20241103.1931)
 -->
<!-- Title: SuzukiMindMapCircular Pages: 1 -->
<svg width="576pt" height="431pt"
 viewBox="0.00 0.00 576.00 431.20" xmlns="http://www.w3.org/2000/svg" xmlns:xlink="http://www.w3.org/1999/xlink">
<g id="graph0" class="graph" transform="scale(0.155016 0.155016) rotate(0) translate(4 2777.68)">
<title>SuzukiMindMapCircular</title>
<polygon fill="white" stroke="none" points="-4,4 -4,-2777.68 3711.74,-2777.68 3711.74,4 -4,4"/>
<!-- Root -->
<g id="node1" class="node">
<title>Root</title>
<polygon fill="lightblue" stroke="lightblue" points="2567.76,-978.07 2379.26,-978.07 2379.26,-937.07 2567.76,-937.07 2567.76,-978.07"/>
<text text-anchor="middle" x="2473.51" y="-960.77" font-family="Times New Roman,serif" font-size="14.00">Suzuki 2026 Redesign</text>
<text text-anchor="middle" x="2473.51" y="-944.27" font-family="Times New Roman,serif" font-size="14.00">Light, Efficient, Powerful, Safe</text>
</g>
<!-- VIBE -->
<g id="node2" class="node">
<title>VIBE</title>
<ellipse fill="lightgrey" stroke="lightgrey" cx="826.5" cy="-2618.8" rx="32.41" ry="18"/>
<text text-anchor="middle" x="826.5" y="-2613.75" font-family="Times New Roman,serif" font-size="14.00">VIBE</text>
</g>
<!-- Root&#45;&gt;VIBE -->
<g id="edge1" class="edge">
<title>Root&#45;&gt;VIBE</title>
<path fill="none" stroke="black" d="M2452.98,-978.27C2277.88,-1154.89 1037,-2406.49 850.06,-2595.04"/>
<polygon fill="black" stroke="black" points="847.82,-2592.33 843.26,-2601.9 852.79,-2597.26 847.82,-2592.33"/>
</g>
<!-- LUSH -->
<g id="node3" class="node">
<title>LUSH</title>
<ellipse fill="lightgrey" stroke="lightgrey" cx="3125.63" cy="-1271.61" rx="34.97" ry="18"/>
<text text-anchor="middle" x="3125.63" y="-1266.56" font-family="Times New Roman,serif" font-size="14.00">LUSH</text>
</g>
<!-- Root&#45;&gt;LUSH -->
<g id="edge2" class="edge">
<title>Root&#45;&gt;LUSH</title>
<path fill="none" stroke="black" d="M2517.06,-978.54C2638.27,-1036.91 2977.99,-1200.51 3089.6,-1254.26"/>
<polygon fill="black" stroke="black" points="3087.78,-1257.27 3098.31,-1258.45 3090.82,-1250.96 3087.78,-1257.27"/>
</g>
<!-- FLAIR -->
<g id="node4" class="node">
<title>FLAIR</title>
<ellipse fill="lightgrey" stroke="lightgrey" cx="2473.51" cy="-453.88" rx="37.53" ry="18"/>
<text text-anchor="middle" x="2473.51" y="-448.83" font-family="Times New Roman,serif" font-size="14.00">FLAIR</text>
</g>
<!-- Root&#45;&gt;FLAIR -->
<g id="edge3" class="edge">
<title>Root&#45;&gt;FLAIR</title>
<path fill="none" stroke="black" d="M2473.51,-936.88C2473.51,-858.04 2473.51,-576.18 2473.51,-483.59"/>
<polygon fill="black" stroke="black" points="2477.01,-483.81 2473.51,-473.81 2470.01,-483.81 2477.01,-483.81"/>
</g>
<!-- SLEEK -->
<g id="node5" class="node">
<title>SLEEK</title>
<ellipse fill="lightgrey" stroke="lightgrey" cx="537.7" cy="-2229.88" rx="39.58" ry="18"/>
<text text-anchor="middle" x="537.7" y="-2224.83" font-family="Times New Roman,serif" font-size="14.00">SLEEK</text>
</g>
<!-- Root&#45;&gt;SLEEK -->
<g id="edge4" class="edge">
<title>Root&#45;&gt;SLEEK</title>
<path fill="none" stroke="black" d="M2441.92,-978.33C2212.35,-1129.21 802.48,-2055.85 570.1,-2208.58"/>
<polygon fill="black" stroke="black" points="568.23,-2205.62 561.79,-2214.04 572.07,-2211.47 568.23,-2205.62"/>
</g>
<!-- ALLURE -->
<g id="node6" class="node">
<title>ALLURE</title>
<ellipse fill="lightgrey" stroke="lightgrey" cx="3576.9" cy="-705.72" rx="47.26" ry="18"/>
<text text-anchor="middle" x="3576.9" y="-700.67" font-family="Times New Roman,serif" font-size="14.00">ALLURE</text>
</g>
<!-- Root&#45;&gt;ALLURE -->
<g id="edge5" class="edge">
<title>Root&#45;&gt;ALLURE</title>
<path fill="none" stroke="black" d="M2565.21,-936.63C2787.76,-885.84 3350.89,-757.31 3524.88,-717.6"/>
<polygon fill="black" stroke="black" points="3525.56,-721.03 3534.54,-715.39 3524.01,-714.21 3525.56,-721.03"/>
</g>
<!-- TEMPT -->
<g id="node7" class="node">
<title>TEMPT</title>
<ellipse fill="lightgrey" stroke="lightgrey" cx="282.21" cy="-1706.43" rx="41.63" ry="18"/>
<text text-anchor="middle" x="282.21" y="-1701.38" font-family="Times New Roman,serif" font-size="14.00">TEMPT</text>
</g>
<!-- Root&#45;&gt;TEMPT -->
<g id="edge6" class="edge">
<title>Root&#45;&gt;TEMPT</title>
<path fill="none" stroke="black" d="M2412.33,-978.47C2090.77,-1088.37 600.62,-1597.62 325.83,-1691.52"/>
<polygon fill="black" stroke="black" points="324.88,-1688.15 316.55,-1694.7 327.14,-1694.78 324.88,-1688.15"/>
</g>
<!-- LUXE -->
<g id="node8" class="node">
<title>LUXE</title>
<ellipse fill="lightgrey" stroke="lightgrey" cx="3358.36" cy="-251.92" rx="35.49" ry="18"/>
<text text-anchor="middle" x="3358.36" y="-246.87" font-family="Times New Roman,serif" font-size="14.00">LUXE</text>
</g>
<!-- Root&#45;&gt;LUXE -->
<g id="edge7" class="edge">
<title>Root&#45;&gt;LUXE</title>
<path fill="none" stroke="black" d="M2499.51,-936.83C2628.31,-834.12 3197.02,-380.59 3330.33,-274.27"/>
<polygon fill="black" stroke="black" points="3332.35,-277.14 3337.98,-268.17 3327.98,-271.67 3332.35,-277.14"/>
</g>
<!-- ENVY -->
<g id="node9" class="node">
<title>ENVY</title>
<ellipse fill="lightgrey" stroke="lightgrey" cx="148.27" cy="-1212.04" rx="36.51" ry="18"/>
<text text-anchor="middle" x="148.27" y="-1206.99" font-family="Times New Roman,serif" font-size="14.00">ENVY</text>
</g>
<!-- Root&#45;&gt;ENVY -->
<g id="edge8" class="edge">
<title>Root&#45;&gt;ENVY</title>
<path fill="none" stroke="black" d="M2379.11,-967.9C1985.51,-1010.97 482.11,-1175.5 195.59,-1206.86"/>
<polygon fill="black" stroke="black" points="195.45,-1203.36 185.89,-1207.92 196.21,-1210.31 195.45,-1203.36"/>
</g>
<!-- DESIRE -->
<g id="node10" class="node">
<title>DESIRE</title>
<ellipse fill="lightgrey" stroke="lightgrey" cx="2867.31" cy="-139.84" rx="43.16" ry="18"/>
<text text-anchor="middle" x="2867.31" y="-134.79" font-family="Times New Roman,serif" font-size="14.00">DESIRE</text>
</g>
<!-- Root&#45;&gt;DESIRE -->
<g id="edge9" class="edge">
<title>Root&#45;&gt;DESIRE</title>
<path fill="none" stroke="black" d="M2483.44,-936.94C2537.05,-825.63 2791.75,-296.73 2853.7,-168.09"/>
<polygon fill="black" stroke="black" points="2856.78,-169.77 2857.96,-159.24 2850.47,-166.74 2856.78,-169.77"/>
</g>
<!-- THRILL -->
<g id="node11" class="node">
<title>THRILL</title>
<ellipse fill="lightgrey" stroke="lightgrey" cx="2634.57" cy="-1159.53" rx="43.67" ry="18"/>
<text text-anchor="middle" x="2634.57" y="-1154.48" font-family="Times New Roman,serif" font-size="14.00">THRILL</text>
</g>
<!-- Root&#45;&gt;THRILL -->
<g id="edge10" class="edge">
<title>Root&#45;&gt;THRILL</title>
<path fill="none" stroke="black" d="M2490.14,-978.42C2519.67,-1015.44 2581.18,-1092.58 2613.58,-1133.2"/>
<polygon fill="black" stroke="black" points="2610.67,-1135.18 2619.64,-1140.81 2616.15,-1130.81 2610.67,-1135.18"/>
</g>
<!-- Velocity -->
<g id="node12" class="node">
<title>Velocity</title>
<polygon fill="yellow" stroke="yellow" points="987.87,-2645.88 932.87,-2645.88 932.87,-2609.88 993.87,-2609.88 993.87,-2639.88 987.87,-2645.88"/>
<polyline fill="none" stroke="yellow" points="987.87,-2645.88 987.87,-2639.88"/>
<polyline fill="none" stroke="yellow" points="993.87,-2639.88 987.87,-2639.88"/>
<text text-anchor="middle" x="963.37" y="-2622.83" font-family="Times New Roman,serif" font-size="14.00">Velocity</text>
</g>
<!-- VIBE&#45;&gt;Velocity -->
<g id="edge11" class="edge">
<title>VIBE&#45;&gt;Velocity</title>
<path fill="none" stroke="black" d="M858.94,-2620.95C877.57,-2622.19 901.18,-2623.75 921.24,-2625.08"/>
<polygon fill="black" stroke="black" points="920.85,-2628.57 931.06,-2625.74 921.32,-2621.58 920.85,-2628.57"/>
</g>
<!-- Intensity -->
<g id="node13" class="node">
<title>Intensity</title>
<polygon fill="yellow" stroke="yellow" points="843.23,-2773.68 785.98,-2773.68 785.98,-2737.68 849.23,-2737.68 849.23,-2767.68 843.23,-2773.68"/>
<polyline fill="none" stroke="yellow" points="843.23,-2773.68 843.23,-2767.68"/>
<polyline fill="none" stroke="yellow" points="849.23,-2767.68 843.23,-2767.68"/>
<text text-anchor="middle" x="817.61" y="-2750.63" font-family="Times New Roman,serif" font-size="14.00">Intensity</text>
</g>
<!-- VIBE&#45;&gt;Intensity -->
<g id="edge12" class="edge">
<title>VIBE&#45;&gt;Intensity</title>
<path fill="none" stroke="black" d="M825.3,-2637.26C823.82,-2660.04 821.29,-2699.06 819.53,-2726.06"/>
<polygon fill="black" stroke="black" points="816.04,-2725.79 818.89,-2736 823.03,-2726.25 816.04,-2725.79"/>
</g>
<!-- Balance -->
<g id="node14" class="node">
<title>Balance</title>
<polygon fill="yellow" stroke="yellow" points="713.32,-2628.84 659.82,-2628.84 659.82,-2592.84 719.32,-2592.84 719.32,-2622.84 713.32,-2628.84"/>
<polyline fill="none" stroke="yellow" points="713.32,-2628.84 713.32,-2622.84"/>
<polyline fill="none" stroke="yellow" points="719.32,-2622.84 713.32,-2622.84"/>
<text text-anchor="middle" x="689.57" y="-2605.79" font-family="Times New Roman,serif" font-size="14.00">Balance</text>
</g>
<!-- VIBE&#45;&gt;Balance -->
<g id="edge13" class="edge">
<title>VIBE&#45;&gt;Balance</title>
<path fill="none" stroke="black" d="M794.05,-2616.91C775.14,-2615.81 751.11,-2614.42 730.86,-2613.24"/>
<polygon fill="black" stroke="black" points="731.15,-2609.75 720.96,-2612.67 730.74,-2616.74 731.15,-2609.75"/>
</g>
<!-- Elegance -->
<g id="node15" class="node">
<title>Elegance</title>
<polygon fill="yellow" stroke="yellow" points="861.4,-2499.88 801.9,-2499.88 801.9,-2463.88 867.4,-2463.88 867.4,-2493.88 861.4,-2499.88"/>
<polyline fill="none" stroke="yellow" points="861.4,-2499.88 861.4,-2493.88"/>
<polyline fill="none" stroke="yellow" points="867.4,-2493.88 861.4,-2493.88"/>
<text text-anchor="middle" x="834.65" y="-2476.83" font-family="Times New Roman,serif" font-size="14.00">Elegance</text>
</g>
<!-- VIBE&#45;&gt;Elegance -->
<g id="edge14" class="edge">
<title>VIBE&#45;&gt;Elegance</title>
<path fill="none" stroke="black" d="M827.6,-2600.33C828.96,-2577.54 831.28,-2538.51 832.89,-2511.51"/>
<polygon fill="black" stroke="black" points="836.38,-2511.75 833.48,-2501.56 829.39,-2511.34 836.38,-2511.75"/>
</g>
<!-- Light -->
<g id="node16" class="node">
<title>Light</title>
<polygon fill="yellow" stroke="yellow" points="2888.31,-1289.61 2840.31,-1289.61 2840.31,-1253.61 2894.31,-1253.61 2894.31,-1283.61 2888.31,-1289.61"/>
<polyline fill="none" stroke="yellow" points="2888.31,-1289.61 2888.31,-1283.61"/>
<polyline fill="none" stroke="yellow" points="2894.31,-1283.61 2888.31,-1283.61"/>
<text text-anchor="middle" x="2867.31" y="-1266.56" font-family="Times New Roman,serif" font-size="14.00">Light</text>
</g>
<!-- LUSH&#45;&gt;Light -->
<g id="edge15" class="edge">
<title>LUSH&#45;&gt;Light</title>
<path fill="none" stroke="black" d="M3090.25,-1271.61C3042.02,-1271.61 2955.95,-1271.61 2906.04,-1271.61"/>
<polygon fill="black" stroke="black" points="2906.28,-1268.11 2896.28,-1271.61 2906.28,-1275.11 2906.28,-1268.11"/>
</g>
<!-- Ultra&#45;efficient -->
<g id="node17" class="node">
<title>Ultra&#45;efficient</title>
<polygon fill="yellow" stroke="yellow" points="3560.05,-471.88 3472.8,-471.88 3472.8,-435.88 3566.05,-435.88 3566.05,-465.88 3560.05,-471.88"/>
<polyline fill="none" stroke="yellow" points="3560.05,-471.88 3560.05,-465.88"/>
<polyline fill="none" stroke="yellow" points="3566.05,-465.88 3560.05,-465.88"/>
<text text-anchor="middle" x="3519.42" y="-448.83" font-family="Times New Roman,serif" font-size="14.00">Ultra&#45;efficient</text>
</g>
<!-- LUSH&#45;&gt;Ultra&#45;efficient -->
<g id="edge16" class="edge">
<title>LUSH&#45;&gt;Ultra&#45;efficient</title>
<path fill="none" stroke="black" d="M3134.22,-1253.77C3184.71,-1148.92 3442.79,-613.01 3505.62,-482.54"/>
<polygon fill="black" stroke="black" points="3508.76,-484.08 3509.95,-473.55 3502.46,-481.04 3508.76,-484.08"/>
</g>
<!-- Super&#45;powered -->
<g id="node18" class="node">
<title>Super&#45;powered</title>
<polygon fill="yellow" stroke="yellow" points="3274.44,-1384.99 3181.94,-1384.99 3181.94,-1348.99 3280.44,-1348.99 3280.44,-1378.99 3274.44,-1384.99"/>
<polyline fill="none" stroke="yellow" points="3274.44,-1384.99 3274.44,-1378.99"/>
<polyline fill="none" stroke="yellow" points="3280.44,-1378.99 3274.44,-1378.99"/>
<text text-anchor="middle" x="3231.19" y="-1361.94" font-family="Times New Roman,serif" font-size="14.00">Super&#45;powered</text>
</g>
<!-- LUSH&#45;&gt;Super&#45;powered -->
<g id="edge17" class="edge">
<title>LUSH&#45;&gt;Super&#45;powered</title>
<path fill="none" stroke="black" d="M3143.06,-1287.36C3159.21,-1301.95 3183.52,-1323.92 3202.53,-1341.09"/>
<polygon fill="black" stroke="black" points="3199.95,-1343.48 3209.71,-1347.59 3204.64,-1338.29 3199.95,-1343.48"/>
</g>
<!-- Highly secure -->
<g id="node19" class="node">
<title>Highly secure</title>
<polygon fill="yellow" stroke="yellow" points="3108.42,-1421.7 3022.67,-1421.7 3022.67,-1385.7 3114.42,-1385.7 3114.42,-1415.7 3108.42,-1421.7"/>
<polyline fill="none" stroke="yellow" points="3108.42,-1421.7 3108.42,-1415.7"/>
<polyline fill="none" stroke="yellow" points="3114.42,-1415.7 3108.42,-1415.7"/>
<text text-anchor="middle" x="3068.55" y="-1398.65" font-family="Times New Roman,serif" font-size="14.00">Highly secure</text>
</g>
<!-- LUSH&#45;&gt;Highly secure -->
<g id="edge18" class="edge">
<title>LUSH&#45;&gt;Highly secure</title>
<path fill="none" stroke="black" d="M3117.93,-1289.42C3108.45,-1311.36 3092.23,-1348.9 3080.97,-1374.94"/>
<polygon fill="black" stroke="black" points="3077.84,-1373.36 3077.09,-1383.93 3084.27,-1376.14 3077.84,-1373.36"/>
</g>
<!-- Fuel&#45;smart -->
<g id="node20" class="node">
<title>Fuel&#45;smart</title>
<polygon fill="yellow" stroke="yellow" points="2203.57,-326.65 2134.32,-326.65 2134.32,-290.65 2209.57,-290.65 2209.57,-320.65 2203.57,-326.65"/>
<polyline fill="none" stroke="yellow" points="2203.57,-326.65 2203.57,-320.65"/>
<polyline fill="none" stroke="yellow" points="2209.57,-320.65 2203.57,-320.65"/>
<text text-anchor="middle" x="2171.94" y="-303.6" font-family="Times New Roman,serif" font-size="14.00">Fuel&#45;smart</text>
</g>
<!-- FLAIR&#45;&gt;Fuel&#45;smart -->
<g id="edge19" class="edge">
<title>FLAIR&#45;&gt;Fuel&#45;smart</title>
<path fill="none" stroke="black" d="M2446.75,-440.99C2395.81,-416.46 2284.31,-362.76 2220.08,-331.84"/>
<polygon fill="black" stroke="black" points="2221.71,-328.73 2211.18,-327.55 2218.67,-335.04 2221.71,-328.73"/>
</g>
<!-- Lightweight -->
<g id="node21" class="node">
<title>Lightweight</title>
<polygon fill="yellow" stroke="yellow" points="3160.63,-157.84 3084.63,-157.84 3084.63,-121.84 3166.63,-121.84 3166.63,-151.84 3160.63,-157.84"/>
<polyline fill="none" stroke="yellow" points="3160.63,-157.84 3160.63,-151.84"/>
<polyline fill="none" stroke="yellow" points="3166.63,-151.84 3160.63,-151.84"/>
<text text-anchor="middle" x="3125.63" y="-134.79" font-family="Times New Roman,serif" font-size="14.00">Lightweight</text>
</g>
<!-- FLAIR&#45;&gt;Lightweight -->
<g id="edge20" class="edge">
<title>FLAIR&#45;&gt;Lightweight</title>
<path fill="none" stroke="black" d="M2500.29,-440.98C2599.6,-393.16 2947.72,-225.51 3076.9,-163.3"/>
<polygon fill="black" stroke="black" points="3078.41,-166.46 3085.9,-158.97 3075.37,-160.15 3078.41,-166.46"/>
</g>
<!-- Agile -->
<g id="node22" class="node">
<title>Agile</title>
<polygon fill="yellow" stroke="yellow" points="3379.36,-1177.53 3331.36,-1177.53 3331.36,-1141.53 3385.36,-1141.53 3385.36,-1171.53 3379.36,-1177.53"/>
<polyline fill="none" stroke="yellow" points="3379.36,-1177.53 3379.36,-1171.53"/>
<polyline fill="none" stroke="yellow" points="3385.36,-1171.53 3379.36,-1171.53"/>
<text text-anchor="middle" x="3358.36" y="-1154.48" font-family="Times New Roman,serif" font-size="14.00">Agile</text>
</g>
<!-- FLAIR&#45;&gt;Agile -->
<g id="edge21" class="edge">
<title>FLAIR&#45;&gt;Agile</title>
<path fill="none" stroke="black" d="M2493.23,-469.61C2607.51,-560.74 3184.57,-1020.93 3326.7,-1134.27"/>
<polygon fill="black" stroke="black" points="3324.24,-1136.79 3334.24,-1140.29 3328.6,-1131.32 3324.24,-1136.79"/>
</g>
<!-- Intense -->
<g id="node23" class="node">
<title>Intense</title>
<polygon fill="yellow" stroke="yellow" points="2437.53,-723.72 2388.53,-723.72 2388.53,-687.72 2443.53,-687.72 2443.53,-717.72 2437.53,-723.72"/>
<polyline fill="none" stroke="yellow" points="2437.53,-723.72 2437.53,-717.72"/>
<polyline fill="none" stroke="yellow" points="2443.53,-717.72 2437.53,-717.72"/>
<text text-anchor="middle" x="2416.03" y="-700.67" font-family="Times New Roman,serif" font-size="14.00">Intense</text>
</g>
<!-- FLAIR&#45;&gt;Intense -->
<g id="edge22" class="edge">
<title>FLAIR&#45;&gt;Intense</title>
<path fill="none" stroke="black" d="M2469.38,-471.99C2459.56,-515 2434.78,-623.58 2422.76,-676.21"/>
<polygon fill="black" stroke="black" points="2419.35,-675.43 2420.54,-685.96 2426.18,-676.99 2419.35,-675.43"/>
</g>
<!-- Reliable -->
<g id="node24" class="node">
<title>Reliable</title>
<polygon fill="yellow" stroke="yellow" points="2659.07,-269.92 2604.07,-269.92 2604.07,-233.92 2665.07,-233.92 2665.07,-263.92 2659.07,-269.92"/>
<polyline fill="none" stroke="yellow" points="2659.07,-269.92 2659.07,-263.92"/>
<polyline fill="none" stroke="yellow" points="2665.07,-263.92 2659.07,-263.92"/>
<text text-anchor="middle" x="2634.57" y="-246.87" font-family="Times New Roman,serif" font-size="14.00">Reliable</text>
</g>
<!-- FLAIR&#45;&gt;Reliable -->
<g id="edge23" class="edge">
<title>FLAIR&#45;&gt;Reliable</title>
<path fill="none" stroke="black" d="M2487.24,-436.66C2515.25,-401.54 2579.15,-321.41 2612.85,-279.15"/>
<polygon fill="black" stroke="black" points="2615.51,-281.44 2619,-271.44 2610.03,-277.07 2615.51,-281.44"/>
</g>
<!-- Slim design -->
<g id="node25" class="node">
<title>Slim design</title>
<polygon fill="yellow" stroke="yellow" points="749.55,-2253.92 674.3,-2253.92 674.3,-2217.92 755.55,-2217.92 755.55,-2247.92 749.55,-2253.92"/>
<polyline fill="none" stroke="yellow" points="749.55,-2253.92 749.55,-2247.92"/>
<polyline fill="none" stroke="yellow" points="755.55,-2247.92 749.55,-2247.92"/>
<text text-anchor="middle" x="714.92" y="-2230.87" font-family="Times New Roman,serif" font-size="14.00">Slim design</text>
</g>
<!-- SLEEK&#45;&gt;Slim design -->
<g id="edge24" class="edge">
<title>SLEEK&#45;&gt;Slim design</title>
<path fill="none" stroke="black" d="M577.47,-2231.23C602.65,-2232.09 635.49,-2233.21 662.75,-2234.14"/>
<polygon fill="black" stroke="black" points="662.43,-2237.63 672.54,-2234.47 662.67,-2230.64 662.43,-2237.63"/>
</g>
<!-- Legendary efficiency -->
<g id="node26" class="node">
<title>Legendary efficiency</title>
<polygon fill="yellow" stroke="yellow" points="633.44,-2421.52 507.94,-2421.52 507.94,-2385.52 639.44,-2385.52 639.44,-2415.52 633.44,-2421.52"/>
<polyline fill="none" stroke="yellow" points="633.44,-2421.52 633.44,-2415.52"/>
<polyline fill="none" stroke="yellow" points="639.44,-2415.52 633.44,-2415.52"/>
<text text-anchor="middle" x="573.69" y="-2398.47" font-family="Times New Roman,serif" font-size="14.00">Legendary efficiency</text>
</g>
<!-- SLEEK&#45;&gt;Legendary efficiency -->
<g id="edge25" class="edge">
<title>SLEEK&#45;&gt;Legendary efficiency</title>
<path fill="none" stroke="black" d="M541.48,-2248.13C547.69,-2278.09 560.1,-2337.97 567.57,-2374.01"/>
<polygon fill="black" stroke="black" points="564.14,-2374.68 569.59,-2383.76 570.99,-2373.26 564.14,-2374.68"/>
</g>
<!-- Exquisite power -->
<g id="node27" class="node">
<title>Exquisite power</title>
<polygon fill="yellow" stroke="yellow" points="419.09,-2313.2 320.59,-2313.2 320.59,-2277.2 425.09,-2277.2 425.09,-2307.2 419.09,-2313.2"/>
<polyline fill="none" stroke="yellow" points="419.09,-2313.2 419.09,-2307.2"/>
<polyline fill="none" stroke="yellow" points="425.09,-2307.2 419.09,-2307.2"/>
<text text-anchor="middle" x="372.84" y="-2290.15" font-family="Times New Roman,serif" font-size="14.00">Exquisite power</text>
</g>
<!-- SLEEK&#45;&gt;Exquisite power -->
<g id="edge26" class="edge">
<title>SLEEK&#45;&gt;Exquisite power</title>
<path fill="none" stroke="black" d="M507.46,-2241.86C485.81,-2250.44 456,-2262.25 429.93,-2272.58"/>
<polygon fill="black" stroke="black" points="428.82,-2269.26 420.81,-2276.2 431.39,-2275.77 428.82,-2269.26"/>
</g>
<!-- Extra safe -->
<g id="node28" class="node">
<title>Extra safe</title>
<polygon fill="yellow" stroke="yellow" points="449.95,-2114.73 385.2,-2114.73 385.2,-2078.73 455.95,-2078.73 455.95,-2108.73 449.95,-2114.73"/>
<polyline fill="none" stroke="yellow" points="449.95,-2114.73 449.95,-2108.73"/>
<polyline fill="none" stroke="yellow" points="455.95,-2108.73 449.95,-2108.73"/>
<text text-anchor="middle" x="420.57" y="-2091.68" font-family="Times New Roman,serif" font-size="14.00">Extra safe</text>
</g>
<!-- SLEEK&#45;&gt;Extra safe -->
<g id="edge27" class="edge">
<title>SLEEK&#45;&gt;Extra safe</title>
<path fill="none" stroke="black" d="M522.62,-2212.74C502.75,-2190.15 467.57,-2150.16 444.16,-2123.55"/>
<polygon fill="black" stroke="black" points="446.94,-2121.41 437.71,-2116.22 441.69,-2126.04 446.94,-2121.41"/>
</g>
<!-- Killer style -->
<g id="node29" class="node">
<title>Killer style</title>
<polygon fill="yellow" stroke="yellow" points="643.49,-2086.46 572.74,-2086.46 572.74,-2050.46 649.49,-2050.46 649.49,-2080.46 643.49,-2086.46"/>
<polyline fill="none" stroke="yellow" points="643.49,-2086.46 643.49,-2080.46"/>
<polyline fill="none" stroke="yellow" points="649.49,-2080.46 643.49,-2080.46"/>
<text text-anchor="middle" x="611.12" y="-2063.41" font-family="Times New Roman,serif" font-size="14.00">Killer style</text>
</g>
<!-- SLEEK&#45;&gt;Killer style -->
<g id="edge28" class="edge">
<title>SLEEK&#45;&gt;Killer style</title>
<path fill="none" stroke="black" d="M545.83,-2211.99C558.45,-2184.26 582.84,-2130.64 597.97,-2097.37"/>
<polygon fill="black" stroke="black" points="601.14,-2098.86 602.09,-2088.31 594.77,-2095.96 601.14,-2098.86"/>
</g>
<!-- ALLURE&#45;&gt;Light -->
<g id="edge30" class="edge">
<title>ALLURE&#45;&gt;Light</title>
<path fill="none" stroke="black" d="M3556.05,-722.35C3455.54,-802.51 3020.93,-1149.1 2899.14,-1246.22"/>
<polygon fill="black" stroke="black" points="2897.09,-1243.38 2891.45,-1252.35 2901.45,-1248.86 2897.09,-1243.38"/>
</g>
<!-- ALLURE&#45;&gt;Ultra&#45;efficient -->
<g id="edge32" class="edge">
<title>ALLURE&#45;&gt;Ultra&#45;efficient</title>
<path fill="none" stroke="black" d="M3572.77,-687.61C3562.96,-644.61 3538.17,-536.02 3526.16,-483.39"/>
<polygon fill="black" stroke="black" points="3529.57,-482.61 3523.93,-473.64 3522.75,-484.17 3529.57,-482.61"/>
</g>
<!-- ALLURE&#45;&gt;Agile -->
<g id="edge29" class="edge">
<title>ALLURE&#45;&gt;Agile</title>
<path fill="none" stroke="black" d="M3568.2,-723.79C3534.59,-793.6 3413.05,-1045.97 3372.01,-1131.19"/>
<polygon fill="black" stroke="black" points="3368.93,-1129.51 3367.75,-1140.04 3375.24,-1132.55 3368.93,-1129.51"/>
</g>
<!-- Luxurious -->
<g id="node30" class="node">
<title>Luxurious</title>
<polygon fill="yellow" stroke="yellow" points="3549.17,-975.57 3483.67,-975.57 3483.67,-939.57 3555.17,-939.57 3555.17,-969.57 3549.17,-975.57"/>
<polyline fill="none" stroke="yellow" points="3549.17,-975.57 3549.17,-969.57"/>
<polyline fill="none" stroke="yellow" points="3555.17,-969.57 3549.17,-969.57"/>
<text text-anchor="middle" x="3519.42" y="-952.52" font-family="Times New Roman,serif" font-size="14.00">Luxurious</text>
</g>
<!-- ALLURE&#45;&gt;Luxurious -->
<g id="edge31" class="edge">
<title>ALLURE&#45;&gt;Luxurious</title>
<path fill="none" stroke="black" d="M3572.77,-723.83C3562.96,-766.84 3538.17,-875.42 3526.16,-928.06"/>
<polygon fill="black" stroke="black" points="3522.75,-927.28 3523.93,-937.8 3529.57,-928.83 3522.75,-927.28"/>
</g>
<!-- Robust -->
<g id="node31" class="node">
<title>Robust</title>
<polygon fill="yellow" stroke="yellow" points="3697.63,-656.95 3649.38,-656.95 3649.38,-620.95 3703.63,-620.95 3703.63,-650.95 3697.63,-656.95"/>
<polyline fill="none" stroke="yellow" points="3697.63,-656.95 3697.63,-650.95"/>
<polyline fill="none" stroke="yellow" points="3703.63,-650.95 3697.63,-650.95"/>
<text text-anchor="middle" x="3676.51" y="-633.9" font-family="Times New Roman,serif" font-size="14.00">Robust</text>
</g>
<!-- ALLURE&#45;&gt;Robust -->
<g id="edge33" class="edge">
<title>ALLURE&#45;&gt;Robust</title>
<path fill="none" stroke="black" d="M3600.76,-689.73C3612.43,-681.91 3626.74,-672.32 3639.77,-663.58"/>
<polygon fill="black" stroke="black" points="3641.35,-666.73 3647.71,-658.26 3637.46,-660.92 3641.35,-666.73"/>
</g>
<!-- Enticing -->
<g id="node32" class="node">
<title>Enticing</title>
<polygon fill="yellow" stroke="yellow" points="3701.74,-786.76 3645.99,-786.76 3645.99,-750.76 3707.74,-750.76 3707.74,-780.76 3701.74,-786.76"/>
<polyline fill="none" stroke="yellow" points="3701.74,-786.76 3701.74,-780.76"/>
<polyline fill="none" stroke="yellow" points="3707.74,-780.76 3701.74,-780.76"/>
<text text-anchor="middle" x="3676.87" y="-763.71" font-family="Times New Roman,serif" font-size="14.00">Enticing</text>
</g>
<!-- ALLURE&#45;&gt;Enticing -->
<g id="edge34" class="edge">
<title>ALLURE&#45;&gt;Enticing</title>
<path fill="none" stroke="black" d="M3601.87,-721.47C3612.82,-728.37 3625.93,-736.64 3638.11,-744.32"/>
<polygon fill="black" stroke="black" points="3636,-747.13 3646.33,-749.5 3639.74,-741.21 3636,-747.13"/>
</g>
<!-- Thinner -->
<g id="node33" class="node">
<title>Thinner</title>
<polygon fill="yellow" stroke="yellow" points="492.78,-1762.36 440.03,-1762.36 440.03,-1726.36 498.78,-1726.36 498.78,-1756.36 492.78,-1762.36"/>
<polyline fill="none" stroke="yellow" points="492.78,-1762.36 492.78,-1756.36"/>
<polyline fill="none" stroke="yellow" points="498.78,-1756.36 492.78,-1756.36"/>
<text text-anchor="middle" x="469.41" y="-1739.31" font-family="Times New Roman,serif" font-size="14.00">Thinner</text>
</g>
<!-- TEMPT&#45;&gt;Thinner -->
<g id="edge35" class="edge">
<title>TEMPT&#45;&gt;Thinner</title>
<path fill="none" stroke="black" d="M320.09,-1714.11C351.49,-1720.47 396.05,-1729.49 428.3,-1736.03"/>
<polygon fill="black" stroke="black" points="427.61,-1739.46 438.1,-1738.02 429,-1732.6 427.61,-1739.46"/>
</g>
<!-- Engineered for efficiency -->
<g id="node34" class="node">
<title>Engineered for efficiency</title>
<polygon fill="yellow" stroke="yellow" points="359.51,-1915.34 210.76,-1915.34 210.76,-1879.34 365.51,-1879.34 365.51,-1909.34 359.51,-1915.34"/>
<polyline fill="none" stroke="yellow" points="359.51,-1915.34 359.51,-1909.34"/>
<polyline fill="none" stroke="yellow" points="365.51,-1909.34 359.51,-1909.34"/>
<text text-anchor="middle" x="288.13" y="-1892.29" font-family="Times New Roman,serif" font-size="14.00">Engineered for efficiency</text>
</g>
<!-- TEMPT&#45;&gt;Engineered for efficiency -->
<g id="edge36" class="edge">
<title>TEMPT&#45;&gt;Engineered for efficiency</title>
<path fill="none" stroke="black" d="M282.78,-1724.74C283.8,-1757.81 285.97,-1827.78 287.21,-1867.73"/>
<polygon fill="black" stroke="black" points="283.71,-1867.69 287.52,-1877.58 290.71,-1867.47 283.71,-1867.69"/>
</g>
<!-- Made for power -->
<g id="node35" class="node">
<title>Made for power</title>
<polygon fill="yellow" stroke="yellow" points="139.39,-1751.49 40.89,-1751.49 40.89,-1715.49 145.39,-1715.49 145.39,-1745.49 139.39,-1751.49"/>
<polyline fill="none" stroke="yellow" points="139.39,-1751.49 139.39,-1745.49"/>
<polyline fill="none" stroke="yellow" points="145.39,-1745.49 139.39,-1745.49"/>
<text text-anchor="middle" x="93.14" y="-1728.44" font-family="Times New Roman,serif" font-size="14.00">Made for power</text>
</g>
<!-- TEMPT&#45;&gt;Made for power -->
<g id="edge37" class="edge">
<title>TEMPT&#45;&gt;Made for power</title>
<path fill="none" stroke="black" d="M242.57,-1712.1C217.72,-1715.66 185.12,-1720.33 156.71,-1724.39"/>
<polygon fill="black" stroke="black" points="156.54,-1720.88 147.14,-1725.76 157.54,-1727.81 156.54,-1720.88"/>
</g>
<!-- Protective -->
<g id="node36" class="node">
<title>Protective</title>
<polygon fill="yellow" stroke="yellow" points="224.54,-1554.42 159.79,-1554.42 159.79,-1518.42 230.54,-1518.42 230.54,-1548.42 224.54,-1554.42"/>
<polyline fill="none" stroke="yellow" points="224.54,-1554.42 224.54,-1548.42"/>
<polyline fill="none" stroke="yellow" points="230.54,-1548.42 224.54,-1548.42"/>
<text text-anchor="middle" x="195.16" y="-1531.37" font-family="Times New Roman,serif" font-size="14.00">Protective</text>
</g>
<!-- TEMPT&#45;&gt;Protective -->
<g id="edge38" class="edge">
<title>TEMPT&#45;&gt;Protective</title>
<path fill="none" stroke="black" d="M273.06,-1688.56C257.99,-1659.12 227.82,-1600.2 209.77,-1564.94"/>
<polygon fill="black" stroke="black" points="212.95,-1563.47 205.27,-1556.17 206.72,-1566.67 212.95,-1563.47"/>
</g>
<!-- Timeless -->
<g id="node37" class="node">
<title>Timeless</title>
<polygon fill="yellow" stroke="yellow" points="426.74,-1574.06 367.24,-1574.06 367.24,-1538.06 432.74,-1538.06 432.74,-1568.06 426.74,-1574.06"/>
<polyline fill="none" stroke="yellow" points="426.74,-1574.06 426.74,-1568.06"/>
<polyline fill="none" stroke="yellow" points="432.74,-1568.06 426.74,-1568.06"/>
<text text-anchor="middle" x="399.99" y="-1551.01" font-family="Times New Roman,serif" font-size="14.00">Timeless</text>
</g>
<!-- TEMPT&#45;&gt;Timeless -->
<g id="edge39" class="edge">
<title>TEMPT&#45;&gt;Timeless</title>
<path fill="none" stroke="black" d="M295.72,-1689.18C315.98,-1663.32 354.42,-1614.23 378.54,-1583.44"/>
<polygon fill="black" stroke="black" points="381.19,-1585.74 384.6,-1575.71 375.68,-1581.42 381.19,-1585.74"/>
</g>
<!-- LUXE&#45;&gt;Lightweight -->
<g id="edge40" class="edge">
<title>LUXE&#45;&gt;Lightweight</title>
<path fill="none" stroke="black" d="M3332.12,-239.28C3293.8,-220.82 3221.88,-186.19 3173.86,-163.07"/>
<polygon fill="black" stroke="black" points="3175.59,-160.01 3165.06,-158.83 3172.55,-166.32 3175.59,-160.01"/>
</g>
<!-- Uber&#45;efficient -->
<g id="node38" class="node">
<title>Uber&#45;efficient</title>
<polygon fill="yellow" stroke="yellow" points="3326.37,-73.92 3239.87,-73.92 3239.87,-37.92 3332.37,-37.92 3332.37,-67.92 3326.37,-73.92"/>
<polyline fill="none" stroke="yellow" points="3326.37,-73.92 3326.37,-67.92"/>
<polyline fill="none" stroke="yellow" points="3332.37,-67.92 3326.37,-67.92"/>
<text text-anchor="middle" x="3286.12" y="-50.87" font-family="Times New Roman,serif" font-size="14.00">Uber&#45;efficient</text>
</g>
<!-- LUXE&#45;&gt;Uber&#45;efficient -->
<g id="edge41" class="edge">
<title>LUXE&#45;&gt;Uber&#45;efficient</title>
<path fill="none" stroke="black" d="M3351.7,-233.83C3339.15,-199.79 3311.92,-125.93 3296.8,-84.89"/>
<polygon fill="black" stroke="black" points="3300.14,-83.84 3293.4,-75.67 3293.57,-86.26 3300.14,-83.84"/>
</g>
<!-- Extra performance -->
<g id="node39" class="node">
<title>Extra performance</title>
<polygon fill="yellow" stroke="yellow" points="3490.4,-165.4 3378.4,-165.4 3378.4,-129.4 3496.4,-129.4 3496.4,-159.4 3490.4,-165.4"/>
<polyline fill="none" stroke="yellow" points="3490.4,-165.4 3490.4,-159.4"/>
<polyline fill="none" stroke="yellow" points="3496.4,-159.4 3490.4,-159.4"/>
<text text-anchor="middle" x="3437.4" y="-142.35" font-family="Times New Roman,serif" font-size="14.00">Extra performance</text>
</g>
<!-- LUXE&#45;&gt;Extra performance -->
<g id="edge42" class="edge">
<title>LUXE&#45;&gt;Extra performance</title>
<path fill="none" stroke="black" d="M3371.06,-235.13C3383.38,-218.84 3402.28,-193.84 3416.76,-174.69"/>
<polygon fill="black" stroke="black" points="3419.52,-176.85 3422.76,-166.76 3413.93,-172.63 3419.52,-176.85"/>
</g>
<!-- Elevated safety -->
<g id="node40" class="node">
<title>Elevated safety</title>
<polygon fill="yellow" stroke="yellow" points="3607.12,-294.05 3513.87,-294.05 3513.87,-258.05 3613.12,-258.05 3613.12,-288.05 3607.12,-294.05"/>
<polyline fill="none" stroke="yellow" points="3607.12,-294.05 3607.12,-288.05"/>
<polyline fill="none" stroke="yellow" points="3613.12,-288.05 3607.12,-288.05"/>
<text text-anchor="middle" x="3563.5" y="-271" font-family="Times New Roman,serif" font-size="14.00">Elevated safety</text>
</g>
<!-- LUXE&#45;&gt;Elevated safety -->
<g id="edge43" class="edge">
<title>LUXE&#45;&gt;Elevated safety</title>
<path fill="none" stroke="black" d="M3393.16,-256.01C3422.97,-259.52 3466.6,-264.65 3502.24,-268.84"/>
<polygon fill="black" stroke="black" points="3501.66,-272.3 3512,-269.99 3502.48,-265.35 3501.66,-272.3"/>
</g>
<!-- Efficient -->
<g id="node41" class="node">
<title>Efficient</title>
<polygon fill="yellow" stroke="yellow" points="288.62,-1311.16 231.37,-1311.16 231.37,-1275.16 294.62,-1275.16 294.62,-1305.16 288.62,-1311.16"/>
<polyline fill="none" stroke="yellow" points="288.62,-1311.16 288.62,-1305.16"/>
<polyline fill="none" stroke="yellow" points="294.62,-1305.16 288.62,-1305.16"/>
<text text-anchor="middle" x="262.99" y="-1288.11" font-family="Times New Roman,serif" font-size="14.00">Efficient</text>
</g>
<!-- ENVY&#45;&gt;Efficient -->
<g id="edge44" class="edge">
<title>ENVY&#45;&gt;Efficient</title>
<path fill="none" stroke="black" d="M169.58,-1227.11C185.87,-1238.63 208.7,-1254.77 227.71,-1268.22"/>
<polygon fill="black" stroke="black" points="225.55,-1270.97 235.73,-1273.89 229.59,-1265.26 225.55,-1270.97"/>
</g>
<!-- Nimble -->
<g id="node42" class="node">
<title>Nimble</title>
<polygon fill="yellow" stroke="yellow" points="91.15,-1345.73 39.9,-1345.73 39.9,-1309.73 97.15,-1309.73 97.15,-1339.73 91.15,-1345.73"/>
<polyline fill="none" stroke="yellow" points="91.15,-1345.73 91.15,-1339.73"/>
<polyline fill="none" stroke="yellow" points="97.15,-1339.73 91.15,-1339.73"/>
<text text-anchor="middle" x="68.53" y="-1322.68" font-family="Times New Roman,serif" font-size="14.00">Nimble</text>
</g>
<!-- ENVY&#45;&gt;Nimble -->
<g id="edge45" class="edge">
<title>ENVY&#45;&gt;Nimble</title>
<path fill="none" stroke="black" d="M136.33,-1229.36C123.44,-1248.06 102.74,-1278.1 87.59,-1300.07"/>
<polygon fill="black" stroke="black" points="84.73,-1298.06 81.93,-1308.28 90.49,-1302.03 84.73,-1298.06"/>
</g>
<!-- Versatile -->
<g id="node43" class="node">
<title>Versatile</title>
<polygon fill="yellow" stroke="yellow" points="57.25,-1151.7 0,-1151.7 0,-1115.7 63.25,-1115.7 63.25,-1145.7 57.25,-1151.7"/>
<polyline fill="none" stroke="yellow" points="57.25,-1151.7 57.25,-1145.7"/>
<polyline fill="none" stroke="yellow" points="63.25,-1145.7 57.25,-1145.7"/>
<text text-anchor="middle" x="31.63" y="-1128.65" font-family="Times New Roman,serif" font-size="14.00">Versatile</text>
</g>
<!-- ENVY&#45;&gt;Versatile -->
<g id="edge46" class="edge">
<title>ENVY&#45;&gt;Versatile</title>
<path fill="none" stroke="black" d="M126.33,-1197.3C109.95,-1186.31 87.21,-1171.03 68.12,-1158.21"/>
<polygon fill="black" stroke="black" points="70.31,-1155.47 60.06,-1152.8 66.41,-1161.28 70.31,-1155.47"/>
</g>
<!-- Youthful -->
<g id="node44" class="node">
<title>Youthful</title>
<polygon fill="yellow" stroke="yellow" points="254,-1114.35 196,-1114.35 196,-1078.35 260,-1078.35 260,-1108.35 254,-1114.35"/>
<polyline fill="none" stroke="yellow" points="254,-1114.35 254,-1108.35"/>
<polyline fill="none" stroke="yellow" points="260,-1108.35 254,-1108.35"/>
<text text-anchor="middle" x="228" y="-1091.3" font-family="Times New Roman,serif" font-size="14.00">Youthful</text>
</g>
<!-- ENVY&#45;&gt;Youthful -->
<g id="edge47" class="edge">
<title>ENVY&#45;&gt;Youthful</title>
<path fill="none" stroke="black" d="M160.2,-1194.72C173.09,-1176.02 193.8,-1145.98 208.94,-1124.01"/>
<polygon fill="black" stroke="black" points="211.81,-1126.02 214.6,-1115.8 206.04,-1122.05 211.81,-1126.02"/>
</g>
<!-- DESIRE&#45;&gt;Reliable -->
<g id="edge52" class="edge">
<title>DESIRE&#45;&gt;Reliable</title>
<path fill="none" stroke="black" d="M2838.77,-153.58C2797.92,-173.25 2722.54,-209.55 2675.68,-232.12"/>
<polygon fill="black" stroke="black" points="2674.42,-228.84 2666.93,-236.33 2677.46,-235.15 2674.42,-228.84"/>
</g>
<!-- Dynamic -->
<g id="node45" class="node">
<title>Dynamic</title>
<polygon fill="yellow" stroke="yellow" points="2628.01,-160.59 2567.76,-160.59 2567.76,-124.59 2634.01,-124.59 2634.01,-154.59 2628.01,-160.59"/>
<polyline fill="none" stroke="yellow" points="2628.01,-160.59 2628.01,-154.59"/>
<polyline fill="none" stroke="yellow" points="2634.01,-154.59 2628.01,-154.59"/>
<text text-anchor="middle" x="2600.89" y="-137.54" font-family="Times New Roman,serif" font-size="14.00">Dynamic</text>
</g>
<!-- DESIRE&#45;&gt;Dynamic -->
<g id="edge48" class="edge">
<title>DESIRE&#45;&gt;Dynamic</title>
<path fill="none" stroke="black" d="M2823.91,-140.29C2774.77,-140.79 2695.1,-141.62 2645.48,-142.13"/>
<polygon fill="black" stroke="black" points="2645.63,-138.63 2635.66,-142.23 2645.7,-145.63 2645.63,-138.63"/>
</g>
<!-- Elegant -->
<g id="node46" class="node">
<title>Elegant</title>
<polygon fill="yellow" stroke="yellow" points="2739.72,-94.79 2688.47,-94.79 2688.47,-58.79 2745.72,-58.79 2745.72,-88.79 2739.72,-94.79"/>
<polyline fill="none" stroke="yellow" points="2739.72,-94.79 2739.72,-88.79"/>
<polyline fill="none" stroke="yellow" points="2745.72,-88.79 2739.72,-88.79"/>
<text text-anchor="middle" x="2717.09" y="-71.74" font-family="Times New Roman,serif" font-size="14.00">Elegant</text>
</g>
<!-- DESIRE&#45;&gt;Elegant -->
<g id="edge49" class="edge">
<title>DESIRE&#45;&gt;Elegant</title>
<path fill="none" stroke="black" d="M2836.55,-126.93C2813.44,-117.23 2781.62,-103.87 2756.62,-93.38"/>
<polygon fill="black" stroke="black" points="2758,-90.17 2747.42,-89.52 2755.29,-96.62 2758,-90.17"/>
</g>
<!-- Sleek -->
<g id="node47" class="node">
<title>Sleek</title>
<polygon fill="yellow" stroke="yellow" points="2858.85,-54.06 2810.85,-54.06 2810.85,-18.06 2864.85,-18.06 2864.85,-48.06 2858.85,-54.06"/>
<polyline fill="none" stroke="yellow" points="2858.85,-54.06 2858.85,-48.06"/>
<polyline fill="none" stroke="yellow" points="2864.85,-48.06 2858.85,-48.06"/>
<text text-anchor="middle" x="2837.85" y="-31.01" font-family="Times New Roman,serif" font-size="14.00">Sleek</text>
</g>
<!-- DESIRE&#45;&gt;Sleek -->
<g id="edge50" class="edge">
<title>DESIRE&#45;&gt;Sleek</title>
<path fill="none" stroke="black" d="M2862.18,-121.76C2857.75,-106.16 2851.27,-83.33 2846.11,-65.16"/>
<polygon fill="black" stroke="black" points="2849.53,-64.4 2843.44,-55.74 2842.8,-66.31 2849.53,-64.4"/>
</g>
<!-- Intelligent -->
<g id="node48" class="node">
<title>Intelligent</title>
<polygon fill="yellow" stroke="yellow" points="3000.92,-36 2935.42,-36 2935.42,0 3006.92,0 3006.92,-30 3000.92,-36"/>
<polyline fill="none" stroke="yellow" points="3000.92,-36 3000.92,-30"/>
<polyline fill="none" stroke="yellow" points="3006.92,-30 3000.92,-30"/>
<text text-anchor="middle" x="2971.17" y="-12.95" font-family="Times New Roman,serif" font-size="14.00">Intelligent</text>
</g>
<!-- DESIRE&#45;&gt;Intelligent -->
<g id="edge51" class="edge">
<title>DESIRE&#45;&gt;Intelligent</title>
<path fill="none" stroke="black" d="M2881.97,-122.64C2899.22,-102.4 2928.08,-68.55 2948.29,-44.84"/>
<polygon fill="black" stroke="black" points="2950.76,-47.34 2954.58,-37.46 2945.43,-42.8 2950.76,-47.34"/>
</g>
<!-- Elevated -->
<g id="node49" class="node">
<title>Elevated</title>
<polygon fill="yellow" stroke="yellow" points="3135.64,-44.97 3078.39,-44.97 3078.39,-8.97 3141.64,-8.97 3141.64,-38.97 3135.64,-44.97"/>
<polyline fill="none" stroke="yellow" points="3135.64,-44.97 3135.64,-38.97"/>
<polyline fill="none" stroke="yellow" points="3141.64,-38.97 3135.64,-38.97"/>
<text text-anchor="middle" x="3110.02" y="-21.92" font-family="Times New Roman,serif" font-size="14.00">Elevated</text>
</g>
<!-- DESIRE&#45;&gt;Elevated -->
<g id="edge53" class="edge">
<title>DESIRE&#45;&gt;Elevated</title>
<path fill="none" stroke="black" d="M2896.58,-126.22C2939.22,-106.39 3018.65,-69.46 3067.67,-46.66"/>
<polygon fill="black" stroke="black" points="3068.97,-49.91 3076.57,-42.52 3066.02,-43.57 3068.97,-49.91"/>
</g>
<!-- THRILL&#45;&gt;Light -->
<g id="edge58" class="edge">
<title>THRILL&#45;&gt;Light</title>
<path fill="none" stroke="black" d="M2663.11,-1173.27C2705,-1193.44 2783.19,-1231.1 2829.72,-1253.51"/>
<polygon fill="black" stroke="black" points="2828.09,-1256.61 2838.62,-1257.79 2831.13,-1250.3 2828.09,-1256.61"/>
</g>
<!-- THRILL&#45;&gt;Intense -->
<g id="edge57" class="edge">
<title>THRILL&#45;&gt;Intense</title>
<path fill="none" stroke="black" d="M2625.87,-1141.46C2592.25,-1071.65 2470.71,-819.28 2429.67,-734.06"/>
<polygon fill="black" stroke="black" points="2432.9,-732.7 2425.41,-725.21 2426.6,-735.74 2432.9,-732.7"/>
</g>
<!-- THRILL&#45;&gt;Luxurious -->
<g id="edge59" class="edge">
<title>THRILL&#45;&gt;Luxurious</title>
<path fill="none" stroke="black" d="M2673.16,-1150.72C2816.27,-1118.06 3316.42,-1003.9 3472.52,-968.27"/>
<polygon fill="black" stroke="black" points="3473.13,-971.72 3482.1,-966.08 3471.57,-964.9 3473.13,-971.72"/>
</g>
<!-- Thin build -->
<g id="node50" class="node">
<title>Thin build</title>
<polygon fill="yellow" stroke="yellow" points="1763.57,-2563.17 1696.57,-2563.17 1696.57,-2527.17 1769.57,-2527.17 1769.57,-2557.17 1763.57,-2563.17"/>
<polyline fill="none" stroke="yellow" points="1763.57,-2563.17 1763.57,-2557.17"/>
<polyline fill="none" stroke="yellow" points="1769.57,-2557.17 1763.57,-2557.17"/>
<text text-anchor="middle" x="1733.07" y="-2540.12" font-family="Times New Roman,serif" font-size="14.00">Thin build</text>
</g>
<!-- THRILL&#45;&gt;Thin build -->
<g id="edge54" class="edge">
<title>THRILL&#45;&gt;Thin build</title>
<path fill="none" stroke="black" d="M2623.01,-1177.3C2527.44,-1324.2 1868.75,-2336.63 1751.05,-2517.54"/>
<polygon fill="black" stroke="black" points="1748.16,-2515.56 1745.64,-2525.85 1754.03,-2519.38 1748.16,-2515.56"/>
</g>
<!-- High performance -->
<g id="node51" class="node">
<title>High performance</title>
<polygon fill="yellow" stroke="yellow" points="1651.44,-2463.96 1541.69,-2463.96 1541.69,-2427.96 1657.44,-2427.96 1657.44,-2457.96 1651.44,-2463.96"/>
<polyline fill="none" stroke="yellow" points="1651.44,-2463.96 1651.44,-2457.96"/>
<polyline fill="none" stroke="yellow" points="1657.44,-2457.96 1651.44,-2457.96"/>
<text text-anchor="middle" x="1599.56" y="-2440.91" font-family="Times New Roman,serif" font-size="14.00">High performance</text>
</g>
<!-- THRILL&#45;&gt;High performance -->
<g id="edge55" class="edge">
<title>THRILL&#45;&gt;High performance</title>
<path fill="none" stroke="black" d="M2620.72,-1176.74C2509.24,-1315.3 1758.88,-2247.94 1621.23,-2419.02"/>
<polygon fill="black" stroke="black" points="1618.58,-2416.74 1615.04,-2426.72 1624.03,-2421.12 1618.58,-2416.74"/>
</g>
<!-- Refined -->
<g id="node52" class="node">
<title>Refined</title>
<polygon fill="yellow" stroke="yellow" points="1502.41,-2359.92 1449.66,-2359.92 1449.66,-2323.92 1508.41,-2323.92 1508.41,-2353.92 1502.41,-2359.92"/>
<polyline fill="none" stroke="yellow" points="1502.41,-2359.92 1502.41,-2353.92"/>
<polyline fill="none" stroke="yellow" points="1508.41,-2353.92 1502.41,-2353.92"/>
<text text-anchor="middle" x="1479.04" y="-2336.87" font-family="Times New Roman,serif" font-size="14.00">Refined</text>
</g>
<!-- THRILL&#45;&gt;Refined -->
<g id="edge56" class="edge">
<title>THRILL&#45;&gt;Refined</title>
<path fill="none" stroke="black" d="M2618.23,-1176.24C2491.17,-1306.26 1661.58,-2155.13 1504.63,-2315.73"/>
<polygon fill="black" stroke="black" points="1502.41,-2313 1497.92,-2322.6 1507.41,-2317.89 1502.41,-2313"/>
</g>
</g>
</svg>
